<svg width="48" height="56" viewBox="0 0 48 56" fill="none" xmlns="http://www.w3.org/2000/svg">
<path d="M48 23.4997C48 10.5215 37.2546 0 24 0C10.7454 0 0 10.5215 0 23.4997C0 42.249 24 56 24 56C24 56 48 42.9997 48 23.4997Z" fill="white"/>
<path d="M42 23.9993C42 14.0577 33.9409 6 23.9993 6C14.0577 6 6 14.0577 6 23.9993C6 33.9396 14.0577 42 23.9993 42C33.9409 42 42 33.9396 42 23.9993Z" fill="#4A74EA" fill-opacity="0.12"/>
<path d="M32.3333 31.7083H15.6667C15.325 31.7083 15.0417 31.9917 15.0417 32.3333C15.0417 32.675 15.325 32.9583 15.6667 32.9583H32.3333C32.675 32.9583 32.9583 32.675 32.9583 32.3333C32.9583 31.9917 32.675 31.7083 32.3333 31.7083Z" fill="#4A74EA"/>
<path d="M28.1667 15.6667H19.8333C17.3333 15.6667 16.5 17.1583 16.5 19V32.3333H31.5V19C31.5 17.1583 30.6667 15.6667 28.1667 15.6667ZM22.3333 28.375H19.8333C19.4917 28.375 19.2083 28.0917 19.2083 27.75C19.2083 27.4083 19.4917 27.125 19.8333 27.125H22.3333C22.675 27.125 22.9583 27.4083 22.9583 27.75C22.9583 28.0917 22.675 28.375 22.3333 28.375ZM22.3333 24.625H19.8333C19.4917 24.625 19.2083 24.3417 19.2083 24C19.2083 23.6583 19.4917 23.375 19.8333 23.375H22.3333C22.675 23.375 22.9583 23.6583 22.9583 24C22.9583 24.3417 22.675 24.625 22.3333 24.625ZM22.3333 20.875H19.8333C19.4917 20.875 19.2083 20.5917 19.2083 20.25C19.2083 19.9083 19.4917 19.625 19.8333 19.625H22.3333C22.675 19.625 22.9583 19.9083 22.9583 20.25C22.9583 20.5917 22.675 20.875 22.3333 20.875ZM28.1667 28.375H25.6667C25.325 28.375 25.0417 28.0917 25.0417 27.75C25.0417 27.4083 25.325 27.125 25.6667 27.125H28.1667C28.5083 27.125 28.7917 27.4083 28.7917 27.75C28.7917 28.0917 28.5083 28.375 28.1667 28.375ZM28.1667 24.625H25.6667C25.325 24.625 25.0417 24.3417 25.0417 24C25.0417 23.6583 25.325 23.375 25.6667 23.375H28.1667C28.5083 23.375 28.7917 23.6583 28.7917 24C28.7917 24.3417 28.5083 24.625 28.1667 24.625ZM28.1667 20.875H25.6667C25.325 20.875 25.0417 20.5917 25.0417 20.25C25.0417 19.9083 25.325 19.625 25.6667 19.625H28.1667C28.5083 19.625 28.7917 19.9083 28.7917 20.25C28.7917 20.5917 28.5083 20.875 28.1667 20.875Z" fill="#4A74EA"/>
</svg>
