<svg width="16" height="16" viewBox="0 0 16 16" fill="none" xmlns="http://www.w3.org/2000/svg">
<path d="M2.66669 4C2.66669 3.4477 3.1144 3 3.66669 3H12.3334C12.8857 3 13.3334 3.4477 13.3334 4V7.66667H2.66669V4Z" stroke="currentColor" stroke-linecap="round" stroke-linejoin="round"/>
<path d="M2 11.6666V13" stroke="currentColor" stroke-linecap="round" stroke-linejoin="round"/>
<path d="M14 11.6666V13" stroke="currentColor" stroke-linecap="round" stroke-linejoin="round"/>
<path d="M7.66663 7.66667V7C7.66663 6.4477 7.21893 6 6.66663 6H4.66663C4.11433 6 3.66663 6.4477 3.66663 7V7.66667" stroke="currentColor" stroke-linecap="round" stroke-linejoin="round"/>
<path d="M12.3333 7.66667V7C12.3333 6.4477 11.8856 6 11.3333 6H9.33331C8.78101 6 8.33331 6.4477 8.33331 7V7.66667" stroke="currentColor" stroke-linecap="round" stroke-linejoin="round"/>
<path d="M1.33337 8.66669C1.33337 8.11439 1.78109 7.66669 2.33337 7.66669H13.6667C14.219 7.66669 14.6667 8.11439 14.6667 8.66669V11.6667H1.33337V8.66669Z" stroke="currentColor" stroke-linecap="round" stroke-linejoin="round"/>
</svg>
