<svg width="16" height="16" viewBox="0 0 16 16" fill="none" xmlns="http://www.w3.org/2000/svg">
<path d="M4.99996 4.66667C5.73634 4.66667 6.33329 4.06971 6.33329 3.33333C6.33329 2.59695 5.73634 2 4.99996 2C4.26358 2 3.66663 2.59695 3.66663 3.33333C3.66663 4.06971 4.26358 4.66667 4.99996 4.66667Z" stroke="currentColor" stroke-width="1.5" stroke-linecap="round" stroke-linejoin="round"/>
<path d="M11 4.66667C11.7363 4.66667 12.3333 4.06971 12.3333 3.33333C12.3333 2.59695 11.7363 2 11 2C10.2636 2 9.66663 2.59695 9.66663 3.33333C9.66663 4.06971 10.2636 4.66667 11 4.66667Z" stroke="currentColor" stroke-width="1.5" stroke-linecap="round" stroke-linejoin="round"/>
<path d="M3.33337 6.66666H6.66671L6.00004 14H4.00004L3.33337 6.66666Z" stroke="currentColor" stroke-width="1.5" stroke-linecap="round" stroke-linejoin="round"/>
<path d="M9.33329 6.66666H12.6666L13.3333 10.3333H12.3333L12 14H9.99996L9.66663 10.3333H8.66663L9.33329 6.66666Z" stroke="currentColor" stroke-width="1.5" stroke-linecap="round" stroke-linejoin="round"/>
</svg>
