<svg width="16" height="16" viewBox="0 0 16 16" fill="currentColor" xmlns="http://www.w3.org/2000/svg">
<path d="M14.6133 7.74666C14.5816 7.66482 14.534 7.59006 14.4733 7.52666L12.8067 5.85999C12.6811 5.73445 12.5109 5.66393 12.3333 5.66393C12.1558 5.66393 11.9855 5.73445 11.86 5.85999C11.7345 5.98553 11.664 6.15579 11.664 6.33332C11.664 6.51086 11.7345 6.68112 11.86 6.80666L12.3933 7.33332H8.66668V5.33332C8.66668 5.15651 8.59644 4.98694 8.47142 4.86192C8.34639 4.73689 8.17682 4.66666 8.00001 4.66666C7.8232 4.66666 7.65363 4.73689 7.52861 4.86192C7.40358 4.98694 7.33335 5.15651 7.33335 5.33332V7.33332H3.60668L4.14001 6.80666C4.26555 6.68112 4.33607 6.51086 4.33607 6.33332C4.33607 6.15579 4.26555 5.98553 4.14001 5.85999C4.01448 5.73445 3.84421 5.66393 3.66668 5.66393C3.48914 5.66393 3.31888 5.73445 3.19335 5.85999L1.52668 7.52666C1.46599 7.59006 1.41841 7.66482 1.38668 7.74666C1.32 7.90896 1.32 8.09102 1.38668 8.25332C1.41841 8.33516 1.46599 8.40992 1.52668 8.47332L3.19335 10.14C3.25532 10.2025 3.32905 10.2521 3.41029 10.2859C3.49153 10.3198 3.57867 10.3372 3.66668 10.3372C3.75469 10.3372 3.84182 10.3198 3.92306 10.2859C4.0043 10.2521 4.07804 10.2025 4.14001 10.14C4.2025 10.078 4.25209 10.0043 4.28594 9.92304C4.31979 9.8418 4.33721 9.75466 4.33721 9.66666C4.33721 9.57865 4.31979 9.49151 4.28594 9.41027C4.25209 9.32903 4.2025 9.2553 4.14001 9.19332L3.60668 8.66666H7.33335V10.6667C7.33335 10.8435 7.40358 11.013 7.52861 11.1381C7.65363 11.2631 7.8232 11.3333 8.00001 11.3333C8.17682 11.3333 8.34639 11.2631 8.47142 11.1381C8.59644 11.013 8.66668 10.8435 8.66668 10.6667V8.66666H12.3933L11.86 9.19332C11.7975 9.2553 11.7479 9.32903 11.7141 9.41027C11.6802 9.49151 11.6628 9.57865 11.6628 9.66666C11.6628 9.75466 11.6802 9.8418 11.7141 9.92304C11.7479 10.0043 11.7975 10.078 11.86 10.14C11.922 10.2025 11.9957 10.2521 12.077 10.2859C12.1582 10.3198 12.2453 10.3372 12.3333 10.3372C12.4214 10.3372 12.5085 10.3198 12.5897 10.2859C12.671 10.2521 12.7447 10.2025 12.8067 10.14L14.4733 8.47332C14.534 8.40992 14.5816 8.33516 14.6133 8.25332C14.68 8.09102 14.68 7.90896 14.6133 7.74666Z" fill="currentColor"/>
<path d="M10.6666 7.33335H8.66663V3.60668L9.19329 4.14001C9.25527 4.2025 9.329 4.25209 9.41024 4.28594C9.49148 4.31979 9.57862 4.33721 9.66663 4.33721C9.75463 4.33721 9.84177 4.31979 9.92301 4.28594C10.0042 4.25209 10.078 4.2025 10.14 4.14001C10.2024 4.07804 10.252 4.0043 10.2859 3.92306C10.3197 3.84182 10.3372 3.75469 10.3372 3.66668C10.3372 3.57867 10.3197 3.49153 10.2859 3.41029C10.252 3.32905 10.2024 3.25532 10.14 3.19335L8.47329 1.52668C8.40989 1.46599 8.33513 1.41841 8.25329 1.38668C8.09098 1.32 7.90893 1.32 7.74663 1.38668C7.66479 1.41841 7.59003 1.46599 7.52663 1.52668L5.85996 3.19335C5.73442 3.31888 5.6639 3.48914 5.6639 3.66668C5.6639 3.84421 5.73442 4.01448 5.85996 4.14001C5.9855 4.26555 6.15576 4.33607 6.33329 4.33607C6.51083 4.33607 6.68109 4.26555 6.80663 4.14001L7.33329 3.60668V7.33335H5.33329C5.15648 7.33335 4.98691 7.40358 4.86189 7.52861C4.73686 7.65363 4.66663 7.8232 4.66663 8.00001C4.66663 8.17682 4.73686 8.34639 4.86189 8.47142C4.98691 8.59644 5.15648 8.66668 5.33329 8.66668H7.33329V12.3933L6.80663 11.86C6.74447 11.7979 6.67067 11.7485 6.58946 11.7149C6.50824 11.6813 6.4212 11.664 6.33329 11.664C6.24539 11.664 6.15834 11.6813 6.07713 11.7149C5.99591 11.7485 5.92212 11.7979 5.85996 11.86C5.7978 11.9222 5.74849 11.996 5.71485 12.0772C5.68121 12.1584 5.6639 12.2454 5.6639 12.3333C5.6639 12.4213 5.68121 12.5083 5.71485 12.5895C5.74849 12.6707 5.7978 12.7445 5.85996 12.8067L7.52663 14.4733C7.59003 14.534 7.66479 14.5816 7.74663 14.6133C7.82643 14.6486 7.91271 14.6668 7.99996 14.6668C8.08721 14.6668 8.17349 14.6486 8.25329 14.6133C8.33513 14.5816 8.40989 14.534 8.47329 14.4733L10.14 12.8067C10.2655 12.6811 10.336 12.5109 10.336 12.3333C10.336 12.1558 10.2655 11.9855 10.14 11.86C10.0144 11.7345 9.84416 11.664 9.66663 11.664C9.48909 11.664 9.31883 11.7345 9.19329 11.86L8.66663 12.3933V8.66668H10.6666C10.8434 8.66668 11.013 8.59644 11.138 8.47142C11.2631 8.34639 11.3333 8.17682 11.3333 8.00001C11.3333 7.8232 11.2631 7.65363 11.138 7.52861C11.013 7.40358 10.8434 7.33335 10.6666 7.33335Z" fill="currentColor"/>
</svg>
